<svg id="Ebene_1" data-name="Ebene 1" xmlns="http://www.w3.org/2000/svg" viewBox="0 0 64 64">
  <defs>
    <style>
      .cls-1 {
        fill: #fff;
      }

      .cls-2 {
        fill: #da0c2f;
      }
    </style>
  </defs>
  <rect class="cls-1" width="64" height="64"/>
  <path id="Pfad_33" data-name="Pfad 33" class="cls-2" d="M47.79,32.23h0a12.08,12.08,0,0,0-4.55-3.52c-1.51-.66-3.48-1.42-5.85-2.2V14.08H24.5a9.32,9.32,0,0,1,1.27-2.95A10.68,10.68,0,0,1,30,7.49a15.27,15.27,0,0,1,12.88.09,16.54,16.54,0,0,1,4.83,3.55l.14.15,1.22-1.23L49,9.91A17.08,17.08,0,0,0,43.66,6a16.57,16.57,0,0,0-7.2-1.57,15.64,15.64,0,0,0-7.2,1.61,12.66,12.66,0,0,0-4.9,4.25,10.39,10.39,0,0,0-1.75,5.77,8.84,8.84,0,0,0,1.79,5.71,12.23,12.23,0,0,0,4.36,3.39,58.35,58.35,0,0,0,6.88,2.51h.09V46a13.59,13.59,0,0,1-.3,2.85h-.24a15,15,0,0,1-7.28-1.72A14.78,14.78,0,0,1,23.85,44c-.29-.33-.56-.67-.82-1l-.18-.16L14.32,55.22l.11.11a10.21,10.21,0,0,0,.94.92,14.83,14.83,0,0,0,3.1,2,13.22,13.22,0,0,0,6,1.32,12.28,12.28,0,0,0,6.45-1.77,13.37,13.37,0,0,0,5.77-7.28,15.87,15.87,0,0,0,6-1.6,13,13,0,0,0,5.15-4.52,11,11,0,0,0,1.85-6.07A9.47,9.47,0,0,0,47.79,32.23ZM35.73,15.74V26a56.78,56.78,0,0,1-5.92-2.19,11,11,0,0,1-4-2.93,7.12,7.12,0,0,1-1.6-4.76v-.34Zm1.66,30.31V28.26c2,.66,3.62,1.28,4.9,1.83a11.21,11.21,0,0,1,4.09,3.06A7.88,7.88,0,0,1,48,38.29a9.38,9.38,0,0,1-1.59,5.23,11.18,11.18,0,0,1-4.5,3.9,14,14,0,0,1-4.78,1.35A15,15,0,0,0,37.39,46ZM35,50.56a12.72,12.72,0,0,1-.73,1.59,10.82,10.82,0,0,1-9.71,5.77,11.69,11.69,0,0,1-5.29-1.18,13.1,13.1,0,0,1-2.68-1.8l6.38-9.33a16.68,16.68,0,0,0,12,5Z"/>
</svg>
