<svg id="hero" data-name="Ebene 1" xmlns="http://www.w3.org/2000/svg" viewBox="0 0 471.07 838.82">
  <defs>
    <style>
      .cls-3 {
        fill: #4f826f;
      }
    </style>
  </defs>
  <g>
    <path class="cls-3" d="M247,706.62c-7.6-1.52-14.16-2.82-19.84-4.16-41.75-9.79-60.43-19.68-60.12-24.74.08-1.42,2.22-4.94,20.2-6.92,22.89-2.51,57.4.71,104.36,9.83,19.47,14.06,42.83,26.75,74.09,38.63,43.68,16.61,83.07,20.37,91.1,13.36a3.87,3.87,0,0,0,1.41-4c-1.47-6.36-18.74-14.29-48.62-22.33-45.39-12.2-84.42-21.48-117.38-27.88-27-19.62-46.52-42.17-70.84-70.26l-7.66-8.84a202.45,202.45,0,0,1-34.08-53.71,51.33,51.33,0,0,0,6.1-3.52c13.54-9.28,18.29-14.53,17.53-19.37-1-6.45-12.1-10.84-35.61-18-4-23.59-3.73-48.74.83-75.68,3.23-19,6.77-23.23,9.17-23.41,8.63-.68,23.06,43.64,38.31,90.52C231.5,544,250.83,603.41,273.78,649.85c9.68,19.59,20.37,28.75,31.78,27.22,21.39-2.88,44.7-43.22,69.28-119.91,18.64-58.15,33.22-123.22,38.32-149.5,10.24-52.73,1.17-74.89-4.26-88.14-.43-1.06-.83-2-1.2-3l-.8-2c-4.83-12.38-12.12-31.1-16.62-40.4-4.73-9.77-6.17-18.68-8-30-1.29-8-10.2-13.77-19.63-19.85-5.16-3.33-10.5-6.77-14.74-10.69a114.54,114.54,0,0,1-15.16-17.49c-2.3-3.12-3.81-5.18-5.22-6.1-.84-.55-3.9-1.06-8.06-1.51l0-.12c-1-.38-25.29-9.32-31.59-10.43a92.83,92.83,0,0,1-12.25-3.24c-1.56-3.31-2.95-6.67-4.22-9.74l-.58-1.4c-3.63-8.7-11.63-16.75-17.7-22-.68-.58-1.27-1.11-1.8-1.58-2.07-1.85-3.32-3-4.86-2.87-1.3.08-2.39,1-3.72,2.55-.47.54-.91,1.09-1.35,1.63-3.39,4.26-6.08,7.63-23.66-2,8.45,2,15.9,2.64,20.07,1.73,2.49-.55,3.94-1.66,4.3-3.31,1.41-6.49-1.72-22.86-7.94-29.29-2-2.1-4.22-3-6.5-2.54-6.38,1.16-19.27,10.21-20.86,20a11.82,11.82,0,0,0,1.8,8.48c-9.45-3.07-18.09-7.23-21.12-11.28l-1.81,1.36c3.27,4.37,12.46,9.15,24.56,12.81l1.13.33a26.25,26.25,0,0,0,5.12,3.57c19.4,10.59,22.94,6.15,26.68,1.46.41-.52.83-1,1.28-1.55.66-.75,1.6-1.75,2.16-1.78s1.69.94,3.21,2.3c.54.48,1.14,1,1.84,1.61,5.88,5.06,13.62,12.82,17.07,21.12l.58,1.39c3.5,8.43,7.85,18.93,14.26,25.41,5.34,5.4,10.78,11.53,10.69,16.16a4.79,4.79,0,0,1-1.62,3.52c-5.94,5.56-19.7,11-26.7,9.16-3.07-.8-5.25-.91-6.79-.32a6,6,0,0,1,.8-1.41,7.29,7.29,0,0,1,5.36-2.61l1.76-.18c11.55-1.17,15.18-1.87,15.32-4,.11-1.52-1.6-2.48-6.53-3.7-9.28-2.29-20.16-2.31-23,2.07-.78,1.21-1.26,3.26.94,6.09l1.79-1.39c-1.11-1.43-1.39-2.6-.82-3.47,1.66-2.55,10-3.69,20.55-1.09a23.66,23.66,0,0,1,4.26,1.34c-2.3.81-8.95,1.49-12.74,1.87l-1.76.18a9.46,9.46,0,0,0-6.95,3.51,10.72,10.72,0,0,0-1.74,7.54,20.27,20.27,0,0,0,.64,4.65,16,16,0,0,0,2,4.51v.09h.06c.46.76,1,1.52,1.45,2.27,1.91,2.93,3.89,6,3.07,8-.61,1.47-2.8,2.62-6.5,3.4-4.56,1-6.74,1.6-7.06,3.29s1.57,3.21,5.69,6,5.56,6.72,5.15,9.43a3.71,3.71,0,0,1-2.5,3.23c-3.89,1.15-8.71,3.85-10.59,7.94a10,10,0,0,0,.26,8.57c.26.59.56,1.22.87,1.89,2.61,5.59,6.55,14,3.57,21.41-2,4.84-6.75,8.75-14.22,11.61-16.29,6.24-40.56-2.75-55.06-8.12a112.26,112.26,0,0,0-10.91-3.69c-11.55-2.72-27.64-2.57-49.6,23.12-5.22,6.12-9.27,11.33-12.83,15.92-11.18,14.41-17.34,22.34-39.69,32-2.48.94-60.73,23.33-60.3,52,.24,16,19,30.57,55.66,43.21,34.93,12,63.4,20.48,84.19,26.64,5.74,1.71,11,3.27,15.82,4.73a185.2,185.2,0,0,0,11,38C165,550,148.31,554.3,132.07,558.46c-28.64,7.35-55.7,14.3-56.38,27.53-.49,9.36,10.24,26,108.48,62.33l.79-2.13c-72.7-26.89-107.71-46.54-107-60.08.6-11.57,28.1-18.63,54.69-25.45,16.29-4.18,33-8.48,44.93-14A204.44,204.44,0,0,0,212,600.84c2.6,3,5.16,5.94,7.65,8.83,22.7,26.22,41.86,48.35,67.74,67.86-44.84-8.48-78.06-11.43-100.38-9-14.69,1.61-22,4.57-22.23,9-.69,11.5,47.18,23.64,61.87,27.08,5.72,1.34,12.3,2.66,19.92,4.18,60,12,171.63,34.28,232.47,149.33l2-1.06C419.7,741.12,307.36,718.68,247,706.62Zm162,1.9c33.2,8.93,46,16.52,47,20.65a1.65,1.65,0,0,1-.68,1.75c-2.48,2.16-11.68,3.9-29.47,1.71S387,725,366.51,717.14c-29.25-11.12-51.32-22.7-69.8-35.5C328.53,688,365.88,696.93,409,708.52ZM212.56,135.66c-2.86-2.76-4-5.88-3.47-9.32,1.42-8.76,13.35-17.15,19-18.18,1.49-.27,3,.37,4.47,1.9,5.47,5.66,8.62,21.34,7.35,27.23-.19.87-1.5,1.33-2.57,1.57C232.3,140,222.35,138.47,212.56,135.66Zm64.5,41.85a90.1,90.1,0,0,0,10.47,2.64c3.94.69,15.66,4.74,23.56,7.56-11.19-.85-24.6-1.41-28.82-1.58a59.85,59.85,0,0,1-5.21-8.62ZM150.48,499.61C129.71,493.45,101.26,485,66.36,473c-35.69-12.31-53.9-26.14-54.13-41.11-.4-27.05,58.25-49.58,58.89-49.83,22.93-9.9,29.22-18,40.63-32.7,3.55-4.57,7.57-9.76,12.76-15.83,11.12-13,26.53-27.33,47.36-22.4,2.44.58,6.24,2,10.64,3.62,15.76,5.83,39.57,14.65,56.65,8.11,8.09-3.1,13.31-7.43,15.52-12.89,3.35-8.27-.84-17.26-3.62-23.21l-.86-1.87a7.85,7.85,0,0,1-.26-6.69c1.56-3.41,5.76-5.7,9.17-6.71a6,6,0,0,0,4.1-5.07c.48-3.17-.84-8.11-6.13-11.65-1.06-.71-4.17-2.78-4.67-3.65.74-.56,4-1.24,5.25-1.51,4.54-1,7.2-2.51,8.12-4.75,1.28-3.11-1-6.64-3.27-10.06l-.68-1a72.32,72.32,0,0,0,7.92-.54,50.58,50.58,0,0,1,10.58-.36c8.66.66,20.1,1.37,25.49,1l5.31-.37a4.35,4.35,0,0,1,3.78,1.71,47.69,47.69,0,0,0,9.22,9.46c-.82,0-1.66,0-2.56,0-7.21.34-15,.21-21.81.1-6.43-.1-12-.19-16,.1-14.12,1-18.48,1.66-19.48,3-.68.91-2.73,3.67-2,6.66a6.57,6.57,0,0,0,3.32,4.06l-.2.34c.49.27,11.95,6.65,22.48,6.41,4.35-.09,6.44-.08,7.44,0l.88.17c.78.15,19.14,3.71,24.46,3.25,3-.25,3.37.21,4.38,1.46a15,15,0,0,0,2.33,2.38c.4.31.81.65,1.23,1,3.14,2.57,7,5.76,11.72,6.58,3.14.56,3.26.79,4.73,3.6.56,1.06,1.25,2.38,2.31,4.13l.73,1.18c3.43,5.58,4.35,7.08,2.87,13.75-.13.6-.27,1.2-.41,1.82-1.67,7.31-3.56,15.59,0,28.19a43.3,43.3,0,0,1,.78,21.77,18.61,18.61,0,0,0-.38,2.45h0c-.21,5.32.65,7.47,6.38,16.08,2.93,4.39,1.57,6.86-1.4,12.29a72.6,72.6,0,0,0-7.27,17.55c-5.05,19-51,109.73-51.46,110.65l2,1c1.89-3.74,46.51-91.84,51.62-111.08a69.72,69.72,0,0,1,7.07-17c3-5.49,5-9.11,1.3-14.64-5.77-8.67-6.19-10.19-6-14.84h0c0-.46.17-1.14.33-2a45.38,45.38,0,0,0-.82-22.82c-3.44-12-1.61-20,0-27.07.14-.62.28-1.22.41-1.83,1.68-7.57.36-9.7-3.15-15.42l-.73-1.18c-1-1.68-1.7-3-2.24-4-1.67-3.19-2.27-4.06-6.34-4.77s-7.59-3.59-10.68-6.11c-.43-.35-.84-.69-1.25-1a12.33,12.33,0,0,1-2-2c-1.33-1.64-2.35-2.62-6.34-2.28-4.46.38-19.7-2.43-23.14-3.09-.64-.44-2.65-.44-9.5-.29-8.52.19-18.08-4.44-20.65-5.77l.17-.34a4.89,4.89,0,0,1-2.86-3c-.45-1.9,1-4,1.59-4.73,1.53-1,13.38-1.83,17.87-2.15,3.93-.28,9.44-.19,15.82-.08,6.87.11,14.67.23,21.95-.11,11-.51,15.4,2.71,22.65,8,1.59,1.17,3.22,2.37,5.11,3.67,10,6.87,19.18,10.1,26.57,12.69l1.91.67c5.46,1.93,5.73,2.9,6.53,5.77a34,34,0,0,0,1,3.26c2.08,5.45,10,28,10.11,28.2l2.14-.76c-.08-.22-8-22.77-10.13-28.25-.38-1-.7-2-1-3.05-.95-3.46-1.64-5.08-7.95-7.31l-1.92-.67c-7.27-2.55-16.31-5.71-26-12.42-1.86-1.28-3.49-2.47-5.05-3.63C340.06,249,335.89,246,329,245l.09-.36c-3.19-.73-7.71-4.67-12.4-10.82A6.62,6.62,0,0,0,311,231.2l-5.31.37c-5.53.39-18.14-.45-25.16-1a53.12,53.12,0,0,0-11.06.37,77,77,0,0,1-9,.53,11.79,11.79,0,0,1-1.19-2.84c-.81-3.46-.79-5.55.08-6.4s2.88-.82,6.06,0c8.41,2.19,23-4.28,28.82-9.7a7.48,7.48,0,0,0,1.89-2.78c2.44.49,10,1.85,15.25,1,.78-.13,1.54-.27,2.27-.41,4.82-.91,8-1.51,12.49,2.57,1.56,1.42,3.78,3.61,6.36,6.15,6.58,6.5,15.59,15.4,21.88,19.52,2,1.3,4.19,2.54,6.51,3.84,7.46,4.19,15.91,9,18.73,17.28l2.15-.73c-3.1-9.15-12-14.13-19.77-18.53-2.29-1.28-4.44-2.49-6.38-3.76-6.1-4-15-12.8-21.53-19.24-2.59-2.55-4.83-4.76-6.42-6.21-5.32-4.83-9.55-4-14.44-3.11l-2.22.4c-4.79.79-12.13-.51-14.44-1a.57.57,0,0,1,0-.13c.1-5.45-5.39-11.77-11.35-17.8-.36-.36-.71-.74-1.06-1.14,19.38.8,40.2,2.23,42.13,3.41,1.06.69,2.63,2.83,4.63,5.54a118.86,118.86,0,0,0,15.45,17.81c4.39,4.06,9.81,7.55,15.05,10.93,9,5.8,17.49,11.27,18.62,18.31,1.85,11.47,3.31,20.52,8.19,30.59C392.7,284.3,400,303,404.79,315.31l.8,2.05c.37.95.78,2,1.22,3,5.32,13,14.24,34.78,4.13,86.84-5.1,26.24-19.65,91.19-38.26,149.25-23.95,74.71-47.26,115.64-67.42,118.34-10.34,1.39-20.24-7.35-29.44-26-22.88-46.29-42.19-105.66-57.71-153.36-18.18-55.91-30.2-92.83-40.62-92.09-4.87.36-8.34,8.16-11.24,25.3-4.54,26.78-4.88,51.81-1,75.31C160.74,502.65,155.83,501.2,150.48,499.61Zm17.63,7.65c20.75,6.36,32.1,10.74,32.91,15.84.58,3.72-4.22,8.68-16.58,17.15a51,51,0,0,1-5.69,3.3A182.86,182.86,0,0,1,168.11,507.26Z" transform="translate(-9.98 -19.36)"/>
    <path class="cls-3" d="M40.16,261.51l.05,2.27c2.88-.06,70.68-1.57,76.12-18.73,1.53-4.83-1.76-10.25-9.77-16.13C94.72,220.23,82.14,213.2,73,208.07c-4.8-2.68-9.73-5.44-11.53-6.88h.41c14.93,0,36.16-5.28,49.8-9.79,33.14-10.95,51.18-22.68,53.63-34.87,1.28-6.41-1.74-12.85-9-19.15-13.85-12-20.62-22.58-20.12-31.34.33-5.8,3.88-11.07,10.56-15.65,8.31-5.7,16.33-6.2,22.77-6.6,9-.57,16.12-1,16.1-15.75a121.7,121.7,0,0,0-1.32-16.73c-1.43-10.75-2-15.19,10.14-21.11,14.4-7,34.65-10.86,37.35-7.1.9,1.25-.57,4-4,7.51-13.12,13.34-2.82,24.73,7.14,35.75,4,4.38,8.06,8.91,10.59,13.5.74,1.32,1.49,2.64,2.26,3.94,2.2,3.73,8.94,16.25,3.45,21l1.5,1.71c6.61-5.79.11-18.65-3-23.91-.75-1.28-1.5-2.58-2.22-3.89-2.66-4.81-6.85-9.44-10.9-13.92-9.68-10.71-18.83-20.83-7.21-32.64,4.57-4.65,6-8.06,4.26-10.43-2.41-3.34-10.46-2.58-16.79-1.34a101.43,101.43,0,0,0-23.39,7.73C179.78,34.78,180.53,40.4,182,51.6A120.48,120.48,0,0,1,183.32,68c0,12.6-4.95,12.91-14,13.48-6.72.42-15.08.94-23.91,7-7.29,5-11.18,10.85-11.55,17.38-.55,9.64,6.29,20.49,20.9,33.19,6.59,5.72,9.37,11.44,8.25,17-2.24,11.17-20.26,22.64-52.11,33.16-13.49,4.46-34.44,9.66-49.09,9.68-.94,0-2.88,0-3.25,1.42-.5,1.93,2.34,3.61,13.26,9.72,9.13,5.1,21.63,12.08,33.36,20.69,7.15,5.24,10.16,9.82,9,13.62C110.06,257.33,59.36,261.14,40.16,261.51Z" transform="translate(-9.98 -19.36)"/>
  </g>
</svg>
