<svg id="Ebene_1" data-name="Ebene 1" xmlns="http://www.w3.org/2000/svg" viewBox="0 0 375.47 83.36">
  <defs>
    <style>
      .cls-1 {
        fill: #da0c2f;
      }

      .cls-2 {
        fill: #4f826e;
      }
    </style>
  </defs>
  <g id="Gruppe_9" data-name="Gruppe 9">
    <path id="Pfad_33" data-name="Pfad 33" class="cls-1" d="M50.6,42h0a18.32,18.32,0,0,0-6.88-5.32c-2.28-1-5.26-2.14-8.84-3.32V14.57H15.39a13.5,13.5,0,0,1,1.92-4.46A16.08,16.08,0,0,1,23.76,4.6a23.09,23.09,0,0,1,19.47.14,24.75,24.75,0,0,1,7.31,5.36l.21.23L52.6,8.47l-.18-.21a25.61,25.61,0,0,0-8.07-5.88A25.08,25.08,0,0,0,33.47,0,23.77,23.77,0,0,0,22.58,2.44a19.07,19.07,0,0,0-7.4,6.43,15.63,15.63,0,0,0-2.65,8.71,13.37,13.37,0,0,0,2.71,8.64,18.26,18.26,0,0,0,6.59,5.12,85,85,0,0,0,10.4,3.8l.13,0v27.7a20.82,20.82,0,0,1-.45,4.31h-.36a22.91,22.91,0,0,1-11-2.6,22.45,22.45,0,0,1-6.14-4.77,18.55,18.55,0,0,1-1.24-1.54L12.89,58,0,76.76l.16.17a15.53,15.53,0,0,0,1.43,1.38,21.85,21.85,0,0,0,4.68,3,20.22,20.22,0,0,0,9.11,2,18.71,18.71,0,0,0,9.75-2.68,20.2,20.2,0,0,0,8.72-11,24,24,0,0,0,9-2.43,19.65,19.65,0,0,0,7.8-6.83,16.68,16.68,0,0,0,2.79-9.18A14.3,14.3,0,0,0,50.6,42ZM32.36,17.08V32.53a92.35,92.35,0,0,1-8.95-3.31,16.81,16.81,0,0,1-6-4.44,10.73,10.73,0,0,1-2.37-7.2c0-.16,0-.33,0-.5ZM34.87,62.9V36c3,1,5.48,1.94,7.41,2.77a16.57,16.57,0,0,1,6.18,4.63,11.78,11.78,0,0,1,2.47,7.77,14.12,14.12,0,0,1-2.4,7.9,17.09,17.09,0,0,1-6.8,5.9,21,21,0,0,1-7.24,2.07,23.17,23.17,0,0,0,.39-4.16Zm-3.69,6.82a17.73,17.73,0,0,1-1.09,2.39A16.8,16.8,0,0,1,24,78.53a16.53,16.53,0,0,1-8.59,2.31,17.52,17.52,0,0,1-8-1.79,19.69,19.69,0,0,1-4.06-2.71L13,62.23a25.23,25.23,0,0,0,18.17,7.49Z"/>
    <g id="Gruppe_8" data-name="Gruppe 8">
      <path id="Pfad_34" data-name="Pfad 34" class="cls-2" d="M75.32,45.38a6,6,0,0,1-.66,2.85,4.54,4.54,0,0,1-1.83,1.88,5.59,5.59,0,0,1-2.74.68,5.35,5.35,0,0,1-2.48-.58,5.8,5.8,0,0,1-1.79-1.4l-.21-.24L64,50.2l.18.21a8.33,8.33,0,0,0,2.51,1.9,7.5,7.5,0,0,0,3.42.79,7.61,7.61,0,0,0,3.84-1,7.19,7.19,0,0,0,2.72-2.75,8,8,0,0,0,1-4V28H75.32Z"/>
      <path id="Pfad_35" data-name="Pfad 35" class="cls-2" d="M101.42,29.33a12.5,12.5,0,0,0-12.57,0,12.82,12.82,0,0,0,0,22.07,12.45,12.45,0,0,0,12.57,0,12.82,12.82,0,0,0,0-22.07ZM95.14,50.78a10.09,10.09,0,0,1-8.88-5.13,10.89,10.89,0,0,1,0-10.56,10.22,10.22,0,0,1,17.76,0,10.89,10.89,0,0,1,0,10.56,10.1,10.1,0,0,1-8.88,5.13Z"/>
      <path id="Pfad_36" data-name="Pfad 36" class="cls-2" d="M123.56,40.52a28.06,28.06,0,0,0-3.87-1.43,34.51,34.51,0,0,1-3.27-1.19,5.22,5.22,0,0,1-1.93-1.39,3.12,3.12,0,0,1-.74-2.19,3.92,3.92,0,0,1,.64-2.2,4.48,4.48,0,0,1,1.9-1.57,7.2,7.2,0,0,1,3-.59,7.46,7.46,0,0,1,3.22.68,6.73,6.73,0,0,1,2.25,1.64l.21.24,1.63-1.63-.18-.21a9.45,9.45,0,0,0-3-2.17,9.68,9.68,0,0,0-4.14-.87,9.12,9.12,0,0,0-4.14.9A6.9,6.9,0,0,0,112.4,31a6.21,6.21,0,0,0-1,3.35,5.48,5.48,0,0,0,1.09,3.5,7.21,7.21,0,0,0,2.57,2.05A29.6,29.6,0,0,0,119,41.32c1.36.43,2.46.83,3.27,1.18a5.33,5.33,0,0,1,1.93,1.39,3.22,3.22,0,0,1,.74,2.19,4.26,4.26,0,0,1-2.63,4.1,7.75,7.75,0,0,1-3.3.61,8.36,8.36,0,0,1-3.89-.87,7.35,7.35,0,0,1-2.61-2.12l-.2-.28-1.64,1.64.17.21A10.09,10.09,0,0,0,114.16,52,10.35,10.35,0,0,0,119,53.11a9.87,9.87,0,0,0,4.38-.91,6.61,6.61,0,0,0,3.86-6.12,5.47,5.47,0,0,0-1.08-3.5A7.19,7.19,0,0,0,123.56,40.52Z"/>
      <rect id="Rechteck_6" data-name="Rechteck 6" class="cls-2" x="132.33" y="27.98" width="2.32" height="24.78"/>
      <path id="Pfad_37" data-name="Pfad 37" class="cls-2" d="M148.67,28,138.4,52.76h2.54l2.94-7.08h11.7l2.94,7.08h2.54L150.79,28Zm6,15.38h-9.82l4.91-11.9Z"/>
      <path id="Pfad_38" data-name="Pfad 38" class="cls-2" d="M182.26,48.31,166.63,28h-1.82V52.76h2.32V32.43l15.62,20.33h1.82V28h-2.32Z"/>
      <path id="Pfad_39" data-name="Pfad 39" class="cls-2" d="M193.91,41h11.74V38.69H193.91V30.3h14.51V28H191.58V52.76h17.18V50.44H193.91Z"/>
      <path id="Pfad_40" data-name="Pfad 40" class="cls-2" d="M230.85,40.52A28.19,28.19,0,0,0,227,39.09a34.51,34.51,0,0,1-3.27-1.19,5.22,5.22,0,0,1-1.93-1.39,3.17,3.17,0,0,1-.74-2.19,3.92,3.92,0,0,1,.64-2.2,4.54,4.54,0,0,1,1.9-1.57,7.2,7.2,0,0,1,3-.59,7.46,7.46,0,0,1,3.22.68,6.63,6.63,0,0,1,2.25,1.64l.21.24,1.64-1.63-.19-.21a9.23,9.23,0,0,0-3-2.17,9.67,9.67,0,0,0-4.13-.87,9.16,9.16,0,0,0-4.15.9A6.81,6.81,0,0,0,219.69,31a6,6,0,0,0-1,3.35,5.42,5.42,0,0,0,1.08,3.5,7.16,7.16,0,0,0,2.58,2.05,29,29,0,0,0,3.87,1.44,34.44,34.44,0,0,1,3.27,1.18,5.33,5.33,0,0,1,1.93,1.39,3.22,3.22,0,0,1,.74,2.19,4.26,4.26,0,0,1-2.63,4.1,7.73,7.73,0,0,1-3.29.61,8.37,8.37,0,0,1-3.9-.87,7.23,7.23,0,0,1-2.6-2.12l-.2-.28-1.64,1.64.16.21A10.19,10.19,0,0,0,221.44,52a10.35,10.35,0,0,0,4.82,1.09,9.87,9.87,0,0,0,4.38-.91,6.82,6.82,0,0,0,2.87-2.53,6.7,6.7,0,0,0,1-3.59,5.47,5.47,0,0,0-1.08-3.5A7.24,7.24,0,0,0,230.85,40.52Z"/>
      <path id="Pfad_41" data-name="Pfad 41" class="cls-2" d="M235.81,30.3h7.95V52.76h2.32V30.3H254V28H235.81Z"/>
      <path id="Pfad_42" data-name="Pfad 42" class="cls-2" d="M260.25,41H272V38.69H260.25V30.3h14.51V28H257.92V52.76H275.1V50.44H260.25Z"/>
      <path id="Pfad_43" data-name="Pfad 43" class="cls-2" d="M292.76,29a8.4,8.4,0,0,0-4.13-1h-8.94V52.76H282V43.43h6.62a8.4,8.4,0,0,0,4.13-1,7.64,7.64,0,0,0,2.9-2.8,7.82,7.82,0,0,0,0-7.8A7.6,7.6,0,0,0,292.76,29Zm-4.13,12.11H282V30.3h6.62a6.22,6.22,0,0,1,3,.71,5.15,5.15,0,0,1,2,1.92,5.69,5.69,0,0,1,0,5.54,5.11,5.11,0,0,1-2,1.93,6.22,6.22,0,0,1-3,.71Z"/>
      <path id="Pfad_44" data-name="Pfad 44" class="cls-2" d="M318.22,39H304.13V28h-2.32V52.76h2.32V41.36h14.09v11.4h2.32V28h-2.32Z"/>
      <path id="Pfad_45" data-name="Pfad 45" class="cls-2" d="M334.56,28,324.29,52.76h2.54l2.94-7.08h11.7l2.94,7.08H347L336.68,28Zm6,15.38h-9.82l4.91-11.9Z"/>
      <path id="Pfad_46" data-name="Pfad 46" class="cls-2" d="M373.65,28,363.09,42.12,352.52,28H350.7V52.76H353V32.45l10.07,13.42,10.06-13.42V52.76h2.32V28Z"/>
    </g>
  </g>
</svg>
