<svg id="Ebene_1" data-name="Ebene 1" xmlns="http://www.w3.org/2000/svg" viewBox="0 0 375.45 83.32">
  <defs>
    <style>
      .cls-1 {
        fill: #da0c2f;
      }

      .cls-2 {
        fill: #4f826e;
      }
    </style>
  </defs>
  <g id="Gruppe_9" data-name="Gruppe 9">
    <path id="Pfad_33" data-name="Pfad 33" class="cls-1" d="M50.6,42h0a18.32,18.32,0,0,0-6.88-5.32c-2.28-1-5.26-2.14-8.84-3.32V14.57H15.39a13.71,13.71,0,0,1,1.92-4.46A16.16,16.16,0,0,1,23.76,4.6a23.09,23.09,0,0,1,19.47.14,24.75,24.75,0,0,1,7.31,5.36l.21.23L52.6,8.47l-.18-.21a25.61,25.61,0,0,0-8.07-5.88A25.08,25.08,0,0,0,33.47,0,23.74,23.74,0,0,0,22.58,2.44a19.07,19.07,0,0,0-7.4,6.43,15.63,15.63,0,0,0-2.65,8.71,13.37,13.37,0,0,0,2.71,8.64,18.34,18.34,0,0,0,6.59,5.12,85,85,0,0,0,10.4,3.8h.13v27.7a20.82,20.82,0,0,1-.45,4.31h-.36a22.87,22.87,0,0,1-11-2.6,22.26,22.26,0,0,1-6.14-4.77,18.55,18.55,0,0,1-1.24-1.54L12.89,58,0,76.76l.16.17a15.53,15.53,0,0,0,1.43,1.38,21.93,21.93,0,0,0,4.68,3,20.22,20.22,0,0,0,9.11,2,18.71,18.71,0,0,0,9.75-2.68,20.22,20.22,0,0,0,8.72-11,23.92,23.92,0,0,0,9-2.43,19.72,19.72,0,0,0,7.8-6.83,16.66,16.66,0,0,0,2.79-9.18A14.31,14.31,0,0,0,50.6,42ZM32.36,17.08V32.53a91.38,91.38,0,0,1-8.95-3.31,16.76,16.76,0,0,1-6-4.44A10.73,10.73,0,0,1,15,17.58v-.5ZM34.87,62.9V36c3,1,5.48,1.94,7.41,2.77a16.6,16.6,0,0,1,6.18,4.63,11.78,11.78,0,0,1,2.47,7.77,14.17,14.17,0,0,1-2.4,7.9,17.09,17.09,0,0,1-6.8,5.9A21,21,0,0,1,34.49,67a22.29,22.29,0,0,0,.39-4.16Zm-3.69,6.82a17.73,17.73,0,0,1-1.09,2.39A16.77,16.77,0,0,1,24,78.53a16.53,16.53,0,0,1-8.59,2.31,17.6,17.6,0,0,1-8-1.79,19.69,19.69,0,0,1-4.06-2.71L13,62.23a25.25,25.25,0,0,0,18.17,7.49Z" transform="translate(0 0)"/>

  </g>
</svg>
