<svg xmlns="http://www.w3.org/2000/svg" width="1161.597" height="1352.912" viewBox="0 0 1161.597 1352.912"><defs><style>.a{fill:#da002d;}</style></defs><g transform="matrix(0.94, -0.342, 0.342, 0.94, -943.131, -1216.025)"><g transform="translate(311 1652)"><path class="a" d="M744.323,520.315q-2.431,0-4.536-.2c-36.3-3.546-38.682-28.932-40.421-47.468-.351-3.754-.682-7.3-1.258-10.352-.068-.368-.142-.729-.217-1.086-7.542.367-14.625-1.572-20.409-7.69-9.041-9.568-24.023-31.125-19.226-36.515,2.724-3.057,7.529.527,9.339,1.878a74.623,74.623,0,0,0,7.776,4.924c-1.4-2.3-2.823-4.8-4.258-7.571-4.527-8.723-5.555-11.4-3.777-13.054-10.764-7.208-19.991-13.847-25.536-18.266-8.378-6.683-6.535-15.869-2.855-25.861-14.051.212-28.061-1.519-39.586-15.222-17.32-20.6.693-36.525,12.609-47.064a71.834,71.834,0,0,0,7.293-6.991c8.213-9.985,17.524-21.3,39.608-51.064,6.15-8.285,11.856-12.345,17.615-12.186a12.543,12.543,0,0,1,4.223.8c-11.61-7.261-21.945-15.863-29.863-27.821-20.165-30.454,1.8-79.9,14.924-109.446,2.813-6.335,5.243-11.807,6.813-16.044,4.865-13.146,3.612-18.4,2.432-20.367A3.022,3.022,0,0,0,673,52.062l.382-4.706a7.51,7.51,0,0,1,5.511,3.584c3.07,4.735,2.437,13.052-1.882,24.716-1.619,4.378-4.077,9.913-6.924,16.322-12.73,28.66-34.039,76.625-15.3,104.921,13.265,20.033,34.2,30.407,56.354,41.39,16.551,8.2,33.666,16.685,48.8,29.742,30.91,26.67,44.628,28.607,60.51,30.849,1.925.272,3.873.546,5.874.869,5.923.952,11.351,1.326,15.317,1.6,6.634.457,8.867.61,9.226,3.167s-2.027,3.639-9.494,6.35c-3.4,1.232-6.707,2.479-9.925,3.69-13.348,5.028-24.879,9.369-34.949,10.006a30.875,30.875,0,0,1-8.432-.391c-2.163-.384-2.895-.516-11.538,3.654-11.2,5.4-27.915,10.794-43.62-4.691-13.307-13.118-16.163-22.364-17-35.845-.178-2.885-.119-5.165-.064-7.178.176-6.775.236-9.058-10.773-18.7-4.315-3.777-8.079-9.175-11.72-14.395-5.625-8.068-10.937-15.687-16.934-15.774l-.1,0c-3.994,0-8.585,3.458-13.649,10.28-22.155,29.856-31.913,41.717-39.754,51.249A74.623,74.623,0,0,1,615.1,300.3c-14.486,12.81-25.4,24.7-12.122,40.485,10.711,12.738,23.8,13.877,37.808,13.5l.484-1.215a124.955,124.955,0,0,0,5.525-15.954c1.876-7.537,6.325-10.112,9.728-10.943,11.128-2.726,27.539,8.882,38.08,20.813,6.433,7.283,8.37,11.7,6.475,14.775-2.709,4.4-11.6,2.966-29.277-1.68-7.658-2.012-15.908-1.666-24.647-1.3-1.032.043-2.063.087-3.095.125-4.091,10.709-5.506,17.373.69,22.311C657.8,391.63,691.09,414.045,715.639,426.9a112.367,112.367,0,0,0,26.789,9.762c4.839,1.192,7.045,1.736,7.176,4.151.138,2.6-2.6,3.6-8.6,5.776-3.289,1.194-7.008,2.836-10.945,4.574-8.589,3.792-18.221,8.047-27.448,9.536.047.236.095.476.14.718.614,3.269.958,6.921,1.319,10.786,1.759,18.767,3.754,40.041,36.175,43.206,15.657,1.521,48.762-6.968,83.825-15.963,59.949-15.381,121.933-31.282,139.873-12.13l-3.446,3.229c-16.026-17.11-82.136-.151-135.251,13.477C791.377,512.711,761.739,520.315,744.323,520.315Zm-82.3-99.414c.8,4.514,8.16,18.015,18.892,29.37,4.313,4.561,9.654,6.231,15.678,6.171-2.273-6.7-5.946-11.478-10.647-17.6-1.666-2.169-3.414-4.448-5.224-6.974a119.786,119.786,0,0,1-15.95-9.2A18.272,18.272,0,0,0,662.021,420.9Zm27.805,15.241c5.007,6.518,9.137,11.945,11.6,19.9,8.806-1.289,18.31-5.485,26.723-9.2,4.011-1.77,7.8-3.444,11.242-4.693.52-.189,1.345-.489,2.226-.824-.106-.025-.214-.051-.319-.077a116.6,116.6,0,0,1-27.851-10.163c-9.25-4.846-19.432-10.837-29.275-17,5.339,4.737,11.914,10.342,19.543,15.863,7.656,5.543,8.993,7.663,8.78,9.638a2.962,2.962,0,0,1-1.8,2.4C707.962,443.179,699.179,440.25,689.826,436.143Zm-5.865-7.869a156.232,156.232,0,0,0,21.028,8.6c-.982-.812-2.294-1.831-4.045-3.1a293.017,293.017,0,0,1-24.524-20.294c-.873-.788-1.757-1.585-2.6-2.337.423.848.914,1.812,1.485,2.91A120.619,120.619,0,0,0,683.962,428.274Zm-27.016-74.49A63.092,63.092,0,0,1,673,355.517c14.584,3.832,22.687,5.084,24.082,3.737h0c-.026,0,.367-1.906-6.018-9.135-11.4-12.9-25.758-21.221-33.419-19.355-3.153.773-5.2,3.223-6.267,7.5a123.351,123.351,0,0,1-5.434,15.844l1.013-.043C650.258,353.924,653.608,353.784,656.946,353.784Zm28.839-123.4c4.073,3.376,7.7,8.57,11.438,13.938,3.478,4.99,7.076,10.148,10.954,13.545,12.192,10.673,12.593,14.353,12.385,22.372-.051,1.916-.108,4.085.059,6.764.775,12.549,3.306,20.654,15.6,32.773,10.48,10.331,22.277,11.5,38.25,3.8,9.59-4.625,11-4.657,14.419-4.049a26.575,26.575,0,0,0,7.3.327c9.365-.591,20.588-4.818,33.583-9.713,3.237-1.217,6.564-2.469,9.978-3.709l1.084-.4c-4.009-.278-9.371-.667-15.27-1.617-1.972-.316-3.89-.588-5.787-.856-15.927-2.248-30.974-4.372-62.934-31.951-14.68-12.666-31.522-21.013-47.81-29.085C701.042,238.558,693.2,234.672,685.785,230.381Z" transform="translate(-291.528 -47.356)"/><path class="a" d="M722.812,216.785a47.145,47.145,0,0,1-14.363-2.645c-3.095-1-6.129-1.925-9.078-2.823-21.012-6.4-39.208-11.946-41.583-35.48a5.843,5.843,0,0,1-.1-1.712l4.7.1c.023.283.045.563.072.839.346,1.487,2.348,6.146,13.968,10.754,2.821,1.12,5.364,2.214,7.758,3.246,11.419,4.918,18.965,8.166,37.723,5.774,3.063-.391,5.887-.767,8.462-1.111,15.668-2.086,19.887-2.647,21.191.493,1.033,2.49-1.476,4.691-4.132,6.732a37.246,37.246,0,0,0-5.332,5.417C737.825,211.336,733.131,216.785,722.812,216.785ZM664.9,185.1c5.422,12.432,18.729,16.486,35.847,21.7,2.974.905,6.035,1.838,9.154,2.847,18.1,5.861,22.975.2,28.618-6.358a41.377,41.377,0,0,1,6.031-6.082c.2-.155.387-.3.559-.436-3.22.189-8.559.9-14.114,1.642-2.585.344-5.419.722-8.491,1.113-20.042,2.556-28.491-1.084-40.188-6.121-2.354-1.015-4.856-2.092-7.631-3.193A46.565,46.565,0,0,1,664.9,185.1Z" transform="translate(-233.299 65.386)"/><path class="a" d="M740.055,1124.175c-7.174,0-8.963-1.74-9.721-3.756-3.586-9.547,32.389-29.177,136.113-82.842,110.9-57.376,248.916-128.782,278.778-172.862,15.119-22.315,14.435-27.526,13.439-28.729-3.467-4.2-28.488,6.56-52.681,16.965-37.632,16.186-89.174,38.352-140.441,45.5C890.2,908.97,820.73,909.881,759.064,901.165,682.1,890.289,618.887,864.4,571.187,824.233c-20.328-17.118-28.786-35.747-25.143-55.367,7.724-41.6,69.541-87.379,184.2-136.6-.072-4.48-.367-9.222-.948-14.234-5.373-46.153-56.817-66.467-102.2-84.39-23.422-9.248-45.547-17.985-57.61-29.34A312.3,312.3,0,0,1,536.1,467.338c-8.1-10.255-12.991-16.445-20.367-18.982-13.43-4.621-15.565-12.067-19.1-24.4-.812-2.827-1.731-6.029-2.885-9.539-3.886-11.814-16.226-30.419-28.157-48.407-6.326-9.539-12.3-18.55-16.9-26.36-13.747-23.347-19.228-37.558-13.2-55.186,4.223-12.353,1.564-46.333.138-64.587-.5-6.4-.862-11.024-.828-13.078a6.932,6.932,0,0,1,3.915-6.429c5.71-2.8,15.362.7,21.947,5.611a11.2,11.2,0,0,0,2.475,1.506,25.878,25.878,0,0,0,.128-4.47,28.178,28.178,0,0,1,.3-6.331c.178-.829.306-1.916.444-3.066.521-4.387,1.171-9.849,5.4-12.279,2.9-1.666,6.711-1.432,11.655.709,12.6,5.456,18.2,18.894,16.655,39.937a56.233,56.233,0,0,1-2.955,14.206c-1.5,4.731-2.588,8.151-1,14.51,2.471,9.889,1.606,23.086.911,33.691-.183,2.774-.353,5.375-.45,7.7-.438,10.537-.1,12.368,2.826,19.373.646-2.828,1.355-7.314,2.046-11.7l.5-3.168a130.86,130.86,0,0,1,8.143-29.427c.444-1.168.886-2.328,1.323-3.5,1.058-2.851,2.416-8.581,3.988-15.215,3.312-13.968,7.064-29.8,11.586-35.542,3.042-3.862,6.431-4.295,8.744-3.968,6.654.926,12.139,8.846,14.814,15.345,4.657,11.321-5.763,42.524-9,48.2-2.579,4.517-2.579,4.517-1.627,8.7l.214.939c1.3,5.8,1.141,16.479-.452,29.292-.2,1.631-.384,3.032-.544,4.257-.922,7.093-1,7.671.217,11.491,1.621,5.1,5.64,23.651,5.81,24.439,5.009,22.423,12.324,26.128,23.394,31.736l.769.389a21.85,21.85,0,0,0,4.546,1.91,37.972,37.972,0,0,0-.295-5.271c-.27-2.86-.607-6.418-.635-10.715-.081-11.839,9.458-22.529,19.553-33.846a189.01,189.01,0,0,0,12.931-15.57c12.12-17,23.258-40.717,24.73-44.519a5.71,5.71,0,0,1,4.043-3.546c2.488-.459,5.041.877,7.846,4.089,10.142,11.612,15.2,32.826-1.026,57.534L620.21,361.89c-13.492,19.366-11.746,39.669-9.507,50.053,2.509,11.642,12.167,25.867,31.138,27.647,9.307.873,16.216,3.773,24.216,7.13A175.122,175.122,0,0,0,705.268,458.8c34.4,6.5,70.216-21.289,70.575-21.571l2.923,3.711c-1.525,1.2-37.817,29.406-74.376,22.5a179.253,179.253,0,0,1-40.162-12.368c-7.956-3.339-14.24-5.976-22.831-6.781-21.512-2.02-32.467-18.153-35.31-31.356-2.4-11.134-4.266-32.916,10.212-53.7l18.41-28.036c3.348-5.1,19.141-31.545,1.417-51.836-1.973-2.256-3.159-2.592-3.42-2.551-.193.036-.463.486-.489.561-1.528,3.947-12.933,28.248-25.308,45.6a192.6,192.6,0,0,1-13.248,15.971c-9.475,10.62-18.425,20.651-18.357,30.67.026,4.09.351,7.533.614,10.3.484,5.12.777,8.209-1.574,9.81-2.148,1.462-5.005.5-9.519-1.789l-.763-.387c-11.383-5.768-20.377-10.323-25.873-34.936-.045-.206-4.145-19.137-5.7-24.023-1.532-4.82-1.36-6.148-.4-13.528.159-1.219.34-2.613.54-4.232,1.506-12.115,1.7-22.459.529-27.673l-.21-.928c-1.294-5.693-1.2-6.25,2.042-11.929,3.584-6.284,12.371-35.609,8.827-44.222-2.762-6.711-7.429-11.954-11.1-12.464-1.6-.229-3.032.5-4.381,2.212-3.875,4.924-7.82,21.561-10.7,33.71-1.61,6.787-3,12.645-4.157,15.769-.442,1.188-.89,2.362-1.338,3.541a126.768,126.768,0,0,0-7.892,28.49l-.5,3.161c-2.124,13.462-2.766,17.524-6.057,17.922-2.719.332-4.071-2.9-4.721-4.446-3.4-8.081-3.962-10.45-3.478-22.085.1-2.362.27-5,.455-7.816.673-10.276,1.511-23.065-.78-32.238-1.912-7.659-.525-12.028,1.081-17.085A52.151,52.151,0,0,0,493,221.634c1.383-18.822-3.268-30.683-13.822-35.255-2.36-1.02-5.562-2.02-7.423-.947-2.171,1.247-2.666,5.4-3.063,8.74-.151,1.262-.291,2.456-.516,3.5a25.246,25.246,0,0,0-.2,5.224c.1,3.894.187,7.571-2.554,8.99-2.486,1.283-5.364-.457-7.6-2.122-6.541-4.878-14.093-6.605-17.04-5.158a2.216,2.216,0,0,0-1.273,2.271c-.032,1.831.34,6.6.812,12.628,1.557,19.9,4.16,53.208-.376,66.484-5.462,15.978-.465,28.728,12.8,51.26,4.534,7.7,10.477,16.662,16.766,26.147,12.105,18.251,24.622,37.124,28.709,49.543,1.183,3.6,2.114,6.845,2.936,9.713,3.431,11.96,5,17.418,16.1,21.238,8.687,2.989,14.2,9.964,22.536,20.52a308.345,308.345,0,0,0,32.911,36.453c11.406,10.731,33.12,19.307,56.11,28.384,46.62,18.412,99.459,39.278,105.158,88.238.52,4.47.822,8.727.941,12.781l1.152-.491c24.881-37.9,50.982-67.943,76.959-88.371,29.413-23.13,58.617-33.746,80.08-29.126,13.354,2.872,21.739,11.419,22.434,22.863.958,15.831-13.333,38.038-56.316,52.892q-67.132,23.2-120.225,45.739-2.069,3.188-4.143,6.475c-.731,17.25-4.574,30.23-7.389,39.739-2.279,7.7-3.924,13.258-2.067,15.413,3.843,4.457,25.654,1.631,63.885-3.752,37.857-5.328,102.4-25.092,164.821-44.205,117.422-35.954,189.474-56.529,199.961-39.168,4.077,6.747-1.443,17.374-17.375,33.445-40.111,40.468-131.737,95.27-222.813,133.271-50.261,20.972-172.2,66.042-218.965,31.769-26.491-19.421-23.777-59.974,8.069-120.535q13.241-25.18,27.186-47.283c.015-.465.03-.931.041-1.4C619.411,685.5,557.971,730.5,550.687,769.727c-3.31,17.828,4.61,34.951,23.541,50.893,59.328,49.962,175.26,103.211,390.659,73.158,50.64-7.066,101.842-29.088,139.228-45.167,36.381-15.648,52.7-22.279,58.188-15.636,3.954,4.782.138,14.745-13.169,34.388-30.536,45.076-169.142,116.786-280.516,174.41-38,19.661-70.826,36.642-95.174,50.387-33.289,18.793-38.214,24.777-38.628,26.574,1.906,1.389,12.71,2.643,69.67-11.363,26.368-6.484,63.828-21.314,107.2-38.484,104.279-41.282,234.062-92.667,295.275-60.661,16.564,8.657,27.328,23.124,31.992,43,7.144,30.428,22.03,62.116,35.645,60.869,6.705-.608,16.681-9.551,26.122-48.688,9.4-38.955,16.192-99.852,20.2-181l4.716.232c-7.55,153.009-24.577,231.791-50.608,234.157-8.381.771-16.7-6.229-24.715-20.789-6.312-11.468-12.128-27.4-15.954-43.7-4.4-18.74-14.076-31.79-29.581-39.9-59.3-31-187.968,19.94-291.349,60.867-43.534,17.235-81.135,32.119-107.812,38.679C768.046,1121.2,749.443,1124.175,740.055,1124.175ZM729.447,648.988q-11.047,18.155-22.274,39.436c-30.591,58.169-33.772,96.7-9.456,114.527,71.869,52.685,357.163-85.4,435.63-164.557,18.06-18.219,18.206-25.16,16.685-27.679-2.726-4.51-16.177-7.474-64.8,4.037-36.244,8.58-83.772,23.131-129.734,37.207-62.594,19.166-127.32,38.985-165.545,44.366-49.783,7.008-62.967,8.134-68.121,2.158-3.543-4.109-1.687-10.367,1.117-19.838A163.327,163.327,0,0,0,729.447,648.988ZM882.905,515.979c-29.332,0-81.269,24.448-139.117,110.555q50.584-21.082,113.9-42.966c40.527-14.006,53.956-34.687,53.142-48.143-.555-9.2-7.552-16.129-18.712-18.531A43.966,43.966,0,0,0,882.905,515.979Z" transform="translate(-433.056 70.825)"/><path class="a" d="M544.841,391.452l-21.327-12.235c-22.275-12.778-26.152-21.03-18.86-40.134,6.605-17.307,6.116-49.7,6.11-50.023l4.723-.083c.024,1.364.512,33.627-6.42,51.791-6.439,16.864-3.612,22.644,16.8,34.35l21.327,12.235Z" transform="translate(-372.361 167.53)"/><path class="a" d="M507.158,384.189c-.419-1.1-1.394-4.859-4-14.9-1.2-4.612-2.717-10.475-4.638-17.826-3.76-14.385-14.984-32.952-23.18-46.51-4.619-7.639-8.266-13.673-9.885-17.618-4.773-11.62,2.356-34.477,2.66-35.444l4.5,1.423c-.07.221-6.919,22.189-2.8,32.229,1.481,3.607,5.224,9.8,9.558,16.968,8.347,13.8,19.776,32.71,23.709,47.759,1.921,7.355,3.444,13.22,4.64,17.834,2.267,8.734,3.514,13.547,3.843,14.406Z" transform="translate(-405.701 134.548)"/><path class="a" d="M517.651,433.666c-12.649-5.245-15.784-16.449-19.1-28.312-2.585-9.239-5.513-19.712-13.363-29.051-13.764-16.373-27.063-39.476-40.663-70.626-6.224-14.25-4-24.012-1.194-36.368.888-3.9,1.8-7.935,2.6-12.594,3.367-19.713,9.246-60.421,9.3-60.831l4.676.676c-.06.408-5.948,41.176-9.326,60.951-.816,4.788-1.791,9.067-2.649,12.846-2.821,12.407-4.686,20.605.916,33.432,13.229,30.3,26.67,53.678,39.95,69.477,8.508,10.121,11.584,21.115,14.3,30.817,3.259,11.652,5.834,20.857,16.362,25.219Z" transform="translate(-426.411 84.738)"/></g></g></svg>